# xmcd
#
# Track frame offsets:
#	150
#	15983
#	28361
#	38597
#	47270
#	62830
#	73355
#	86545
#	100035
#	116120
#	125003
#	134412
#
# Disc length: 1896 seconds
#
# Revision: 1
# Processed by: cddbd v1.5.2PL0 Copyright (c) Steve Scherf et al.
# Submitted via: audiograbber 1.83.01
#
DISCID=a307660c
DTITLE=Cornelio Reyna - Coleccion De Oro (Con Mariachi) [CD 2)
DYEAR=2002
DGENRE=Latin
TTITLE0=Te Vas Angel Mio
TTITLE1=Mis Mejores Anos
TTITLE2=Otra Vez Me Cai
TTITLE3=Me Sacaron Del Tenampa
TTITLE4=La Novia de Todos
TTITLE5=Que me Lleve El Tren
TTITLE6=Mi Segunda Madre
TTITLE7=Metida En Mi Sangre
TTITLE8=Me Cambiaste La Suerte
TTITLE9=Los Borrachos No Son Machos
TTITLE10=Ni Los Pleitos
TTITLE11=Rompiendo El Retrato
EXTD=
EXTT0=
EXTT1=
EXTT2=
EXTT3=
EXTT4=
EXTT5=
EXTT6=
EXTT7=
EXTT8=
EXTT9=
EXTT10=
EXTT11=
PLAYORDER=
